<?xml version="1.0" encoding="UTF-8"?>
<svg version="1.1" xmlns="http://www.w3.org/2000/svg" width="864" height="864">
<path d="M0 0 C285.12 0 570.24 0 864 0 C864 285.12 864 570.24 864 864 C578.88 864 293.76 864 0 864 C0 578.88 0 293.76 0 0 Z " fill="#FEFEFE" transform="translate(0,0)"/>
<path d="M0 0 C4.08267684 0.65006908 8.16585022 1.29674451 12.25 1.9375 C13.31847168 2.10531982 14.38694336 2.27313965 15.48779297 2.44604492 C25.30854487 3.95632389 35.15704379 5.15137067 45.02319336 6.31610107 C55.61890522 7.56788568 66.1690824 8.99524022 76.71044922 10.64550781 C90.86766514 12.83747598 105.07253565 14.68574563 119.28637695 16.46655273 C129.89214797 17.8101222 140.41747738 19.41262161 151 21 C151 46.08 151 71.16 151 97 C139.12 98.485 139.12 98.485 127 100 C121.00874192 101.11533768 121.00874192 101.11533768 115.02636719 102.27685547 C106.80168488 103.82818985 98.43524725 104.60900056 90.125 105.5625 C76.23908262 107.07604606 76.23908262 107.07604606 62.49902344 109.51904297 C58.57579771 110.27409911 54.61649073 110.71103924 50.65112305 111.18652344 C45.02642133 111.86316956 39.41508822 112.61609545 33.8046875 113.40234375 C32.9223645 113.5259729 32.0400415 113.64960205 31.13098145 113.77697754 C29.31078314 114.03251152 27.49063398 114.28839585 25.67053223 114.5446167 C22.81808997 114.94549812 19.96525751 115.34349207 17.11230469 115.74072266 C5.4688716 117.36299026 5.4688716 117.36299026 -6.1640625 119.05859375 C-7.14101074 119.20111572 -8.11795898 119.3436377 -9.12451172 119.49047852 C-10.76548138 119.73081023 -12.40537693 119.97874127 -14.04345703 120.23803711 C-31.12761128 122.70718666 -47.84834942 119.60106515 -64.75 117.125 C-67.3345054 116.75559962 -69.91914018 116.38710322 -72.50390625 116.01953125 C-82.23487682 114.6252301 -91.9429872 113.22319073 -101.6086731 111.42599487 C-104.53323625 110.90500843 -107.45640515 110.53145673 -110.41015625 110.21875 C-111.50263672 110.09886719 -112.59511719 109.97898437 -113.72070312 109.85546875 C-115.95243029 109.61807872 -118.18420135 109.38110096 -120.41601562 109.14453125 C-125.24260071 108.6142626 -129.99805222 108.05937318 -134.74609375 107.03125 C-138.98367592 106.1329568 -143.22571586 105.57946484 -147.52734375 105.1015625 C-159.24279981 103.79467954 -170.89661619 102.06049359 -182.5625 100.375 C-190.296875 99.26125 -198.03125 98.1475 -206 97 C-206 71.92 -206 46.84 -206 21 C-184.22533615 17.56189518 -184.22533615 17.56189518 -177.16015625 16.75390625 C-175.49763772 16.55649682 -173.83512153 16.35906774 -172.17260742 16.16162109 C-170.92065079 16.01500031 -170.92065079 16.01500031 -169.6434021 15.86541748 C-148.43727151 13.37647857 -127.31995779 10.42544643 -106.21142578 7.21435547 C-95.15242663 5.54829562 -84.06832278 4.05374921 -72.9901123 2.52204895 C-72.22896118 2.41680405 -71.46781006 2.31155914 -70.68359375 2.203125 C-69.93082153 2.09904831 -69.17804932 1.99497162 -68.40246582 1.88774109 C-62.14147913 1.0213251 -55.88230134 0.14267399 -49.625 -0.75 C-48.81297119 -0.86537109 -48.00094238 -0.98074219 -47.16430664 -1.09960938 C-44.04710497 -1.54603513 -40.94033502 -2.01062022 -37.83984375 -2.5625 C-25.18585868 -4.51194474 -12.48684076 -1.99280296 0 0 Z " fill="#AC76FE" transform="translate(458,373)"/>
<path d="M0 0 C4.07652924 1.32143445 7.73350403 2.78539256 11.5 4.8359375 C12.540354 5.39933838 13.58070801 5.96273926 14.65258789 6.54321289 C15.75723389 7.14770264 16.86187988 7.75219238 18 8.375 C19.15556396 9.00204834 20.31112793 9.62909668 21.50170898 10.27514648 C26.91681544 13.21415331 32.32033787 16.17428033 37.72265625 19.13671875 C39.50248281 20.11220062 41.28242877 21.08746467 43.0625 22.0625 C44.38701172 22.78832275 44.38701172 22.78832275 45.73828125 23.52880859 C53.64537679 27.84371749 61.63437176 31.9938423 69.64208984 36.1184082 C74.88824023 38.82912401 80.09935895 41.58559736 85.26171875 44.453125 C86.25945312 45.00677734 87.2571875 45.56042969 88.28515625 46.13085938 C90.16850475 47.18152957 92.04769712 48.23969793 93.921875 49.30664062 C101.69430496 53.64377521 106.67963199 54.42832839 115.4375 52.375 C116.68575562 52.0970459 116.68575562 52.0970459 117.95922852 51.81347656 C119.74068085 51.41660775 121.52118181 51.01544797 123.30078125 50.61035156 C126.76928661 49.82604771 130.2455609 49.08049053 133.72241211 48.33422852 C144.16257833 46.0877293 154.58795226 43.77205866 165.01394653 41.46081543 C166.55788048 41.11861036 168.10188402 40.7767191 169.64596558 40.43518066 C177.76961888 38.63742061 185.88170454 36.80248958 193.9765625 34.87890625 C199.22133726 33.63346098 204.46905101 32.45689668 209.76220703 31.43457031 C213.83382189 30.64387923 217.88458489 29.75577753 221.9375 28.875 C222.90276611 28.66544678 223.86803223 28.45589355 224.86254883 28.23999023 C233.98589925 26.24578054 243.08635569 24.15505258 252.1875 22.0625 C266.38450354 18.79870461 280.60715608 15.68552684 294.85839844 12.66601562 C299.69906637 11.63980004 304.53810587 10.60636054 309.375 9.5625 C310.27500732 9.36865723 311.17501465 9.17481445 312.10229492 8.97509766 C317.71164181 7.75386187 323.30247172 6.46376369 328.88671875 5.1328125 C329.90303375 4.89155891 329.90303375 4.89155891 330.93988037 4.64543152 C334.28745624 3.85049049 337.63313555 3.0488435 340.97607422 2.23461914 C342.19182129 1.94449951 343.40756836 1.65437988 344.66015625 1.35546875 C345.73918213 1.09403076 346.81820801 0.83259277 347.92993164 0.56323242 C351 0 351 0 357 0 C357 24.75 357 49.5 357 75 C328.5 84.5 328.5 84.5 319.90625 86.84375 C314.03995043 88.51983559 308.28019645 90.55265485 302.5 92.5 C294.61308204 95.15571217 286.75523501 97.72270877 278.73046875 99.92578125 C270.20602769 102.38046323 261.78738264 105.19776115 253.34619141 107.92236328 C250.01773852 108.99428733 246.68708504 110.05904584 243.35546875 111.12109375 C230.02967357 115.36484478 230.02967357 115.36484478 216.75 119.75 C211.36200988 121.56205031 205.94711144 123.25184395 200.5078125 124.90234375 C196.33790617 126.20718081 192.20174785 127.60158199 188.0625 129 C181.4722438 131.22467884 174.8623734 133.20815802 168.16015625 135.0703125 C165.21716843 135.93611114 162.37089148 136.92184861 159.5 138 C155.58034279 139.47129162 151.66042839 140.69682274 147.625 141.8125 C137.11901838 144.73792251 126.8125159 148.31800045 116.50024414 151.8581543 C115.71125732 152.12668213 114.92227051 152.39520996 114.109375 152.671875 C113.41166992 152.91131836 112.71396484 153.15076172 111.99511719 153.39746094 C108.46566358 154.46338011 105.5351382 155.0288835 102 154 C98.36854665 151.66549427 95.22515655 148.85889272 92 146 C90.65643827 144.92412106 89.3023851 143.86119551 87.9375 142.8125 C87.20273437 142.24273438 86.46796875 141.67296875 85.7109375 141.0859375 C81.43736144 137.79762393 77.14825873 134.5296469 72.86206055 131.2578125 C66.70190348 126.54958258 60.57833324 121.79549477 54.46240234 117.0300293 C46.89109732 111.131608 39.28406687 105.28068976 31.6640625 99.4453125 C20.15201299 90.62063422 20.15201299 90.62063422 14.70562744 86.0745697 C12.02718411 83.92335551 12.02718411 83.92335551 8.934021 82.25440979 C3.98586733 79.25654449 0.57512491 77.02045201 -1.05334473 71.29953003 C-1.54066628 66.76850571 -1.35202816 62.25911468 -1.171875 57.71484375 C-1.14945935 56.04625077 -1.13239389 54.37757815 -1.12042236 52.70887756 C-1.07486141 48.34194216 -0.95724854 43.97988948 -0.82397461 39.61486816 C-0.70063471 35.15081849 -0.64629009 30.68596991 -0.5859375 26.22070312 C-0.45770116 17.47824152 -0.25324644 8.73973002 0 0 Z " fill="#AC76FE" transform="translate(252,494)"/>
<path d="M0 0 C3.38170891 2.27624686 6.36722573 4.87701949 9.38842773 7.60473633 C12.79926189 10.5577612 16.42555478 13.2497096 20 16 C21.41896858 17.10679227 22.83695958 18.21483915 24.25390625 19.32421875 C31.58219691 25.04823526 38.93068443 30.73987741 46.375 36.3125 C47.0254126 36.79984619 47.6758252 37.28719238 48.34594727 37.78930664 C51.43947938 40.10230475 54.54287384 42.40023069 57.6640625 44.67578125 C58.51218506 45.29876099 58.51218506 45.29876099 59.37744141 45.93432617 C60.89384429 47.0471003 62.41548233 48.15273052 63.9375 49.2578125 C64.618125 49.83273437 65.29875 50.40765625 66 51 C66 51.66 66 52.32 66 53 C66.67289063 53.20753906 67.34578125 53.41507812 68.0390625 53.62890625 C72.02807143 55.47605946 75.03594972 58.10885682 78.375 60.9375 C79.65004191 62.01340014 80.92888217 63.08481055 82.2109375 64.15234375 C82.88284622 64.72522125 83.55475494 65.29809875 84.24702454 65.88833618 C86.38697748 67.52978241 88.37717531 68.83501238 90.69743347 70.16744995 C100.74965358 76.19817347 100.74965358 76.19817347 102.84166718 80.88604164 C104.08171927 86.03181278 103.72641903 91.2368639 103.46484375 96.48046875 C103.43681002 98.14616773 103.41548485 99.81199177 103.40052795 101.4778595 C103.34367565 105.82963216 103.19678895 110.1737012 103.02996826 114.52246094 C102.87555245 118.97289783 102.80781425 123.42460062 102.73242188 127.87695312 C102.57230839 136.58814293 102.31689903 145.29310941 102 154 C98.66336146 152.93149596 95.47200541 151.8689949 92.38134766 150.21240234 C91.74113678 149.87220062 91.1009259 149.5319989 90.4413147 149.18148804 C89.77232147 148.81995636 89.10332825 148.45842468 88.4140625 148.0859375 C87.71227875 147.71143463 87.010495 147.33693176 86.28744507 146.95108032 C84.06426539 145.76341192 81.84461059 144.5693229 79.625 143.375 C78.11090599 142.56467632 76.59658529 141.75477603 75.08203125 140.9453125 C71.38538027 138.96843053 67.69187493 136.98578602 64 135 C64 134.34 64 133.68 64 133 C62.73800781 132.62488281 61.47601562 132.24976563 60.17578125 131.86328125 C54.46871463 129.95869421 49.41085644 127.13876458 44.1875 124.1875 C42.25217601 123.11170757 40.31598379 122.03747552 38.37890625 120.96484375 C37.45609863 120.4529248 36.53329102 119.94100586 35.58251953 119.41357422 C30.7954649 116.79332027 25.91772454 114.36548775 21 112 C21 111.34 21 110.68 21 110 C20.34515625 109.93039062 19.6903125 109.86078125 19.015625 109.7890625 C14.09759593 108.5022207 9.91399727 105.68983379 5.58984375 103.0625 C-0.05385127 99.86949056 -3.73214303 99.59440504 -10 101 C-10.92651367 101.19722656 -11.85302734 101.39445312 -12.80761719 101.59765625 C-15.9645751 102.2998829 -19.10674048 103.05139701 -22.25 103.8125 C-30.2446755 105.70802897 -38.22539607 107.48584521 -46.3125 108.9375 C-56.26504864 110.73768992 -66.06388559 113.1087806 -75.87817383 115.53881836 C-81.68994283 116.97582725 -87.48756822 118.32880413 -93.36547852 119.46337891 C-99.06644221 120.62459827 -104.71508306 122.03042846 -110.375 123.375 C-119.74055398 125.58696859 -129.11008434 127.69001938 -138.56152344 129.50683594 C-146.72030117 131.09524057 -154.80542416 132.99062238 -162.89550781 134.89477539 C-168.42223156 136.19232788 -173.94914844 137.41834922 -179.52050781 138.50830078 C-184.04681292 139.40589614 -188.55377413 140.39350865 -193.0625 141.375 C-194.57457031 141.70371094 -194.57457031 141.70371094 -196.1171875 142.0390625 C-201.92430223 143.30821591 -207.71841575 144.61948191 -213.5 146 C-220.30042555 147.61712352 -227.11336648 149.17344992 -233.9375 150.6875 C-235.35869141 151.00944336 -235.35869141 151.00944336 -236.80859375 151.33789062 C-237.72640625 151.53962891 -238.64421875 151.74136719 -239.58984375 151.94921875 C-240.39284912 152.12799561 -241.19585449 152.30677246 -242.02319336 152.4909668 C-246.31563884 153.22497392 -250.66686099 153.5666861 -255 154 C-255 129.25 -255 104.5 -255 79 C-245.31051727 75.77017242 -235.93903276 72.64666582 -226.16015625 69.9296875 C-222.36113767 68.81205286 -218.68889922 67.44863686 -214.98583984 66.05126953 C-211.86507682 64.95249557 -208.73242529 64.05073303 -205.54296875 63.171875 C-198.21310992 61.10033073 -191.01986101 58.70902158 -183.8125 56.25 C-172.64409515 52.46776315 -161.41715357 48.98827917 -150.0925293 45.69726562 C-143.37214012 43.73440213 -136.78297253 41.61939169 -130.22485352 39.16430664 C-127.12501512 38.04513567 -124.01615217 37.04437862 -120.86328125 36.0859375 C-119.72600586 35.73917969 -118.58873047 35.39242187 -117.41699219 35.03515625 C-116.28938477 34.69355469 -115.16177734 34.35195312 -114 34 C-98.75929554 29.38070356 -83.59947996 24.5821976 -68.50366211 19.51245117 C-59.70130305 16.5580182 -50.87811417 13.71738964 -42 11 C-39.18635928 10.12864875 -36.37419197 9.25261728 -33.5625 8.375 C-32.55135132 8.05946167 -32.55135132 8.05946167 -31.51977539 7.73754883 C-28.02472774 6.64373885 -24.5367844 5.5330948 -21.0625 4.375 C-20.04542969 4.03662109 -20.04542969 4.03662109 -19.0078125 3.69140625 C-17.57858488 3.19924032 -16.1573365 2.68363671 -14.7421875 2.15234375 C-4.75426962 -1.48732124 -4.75426962 -1.48732124 0 0 Z " fill="#AC76FE" transform="translate(507,216)"/>
<path d="M0 0 C4.29113407 0.67011125 8.58302659 1.3352885 12.875 2 C13.95475098 2.16822266 15.03450195 2.33644531 16.14697266 2.50976562 C27.073396 4.19752089 38.02955534 5.63145358 49 7 C49 7.33 49 7.66 49 8 C42.29671075 8.17523782 35.98227645 7.73137142 29.375 6.625 C27.61092876 6.34476524 25.8466016 6.06613711 24.08203125 5.7890625 C23.21916504 5.65274414 22.35629883 5.51642578 21.46728516 5.37597656 C18.00550916 4.84845479 14.53919994 4.41905066 11.0625 4 C4.6143566 3.21621137 -1.81862323 2.34879973 -8.25 1.4375 C-9.15613037 1.31052734 -10.06226074 1.18355469 -10.99584961 1.05273438 C-11.84800049 0.93091797 -12.70015137 0.80910156 -13.578125 0.68359375 C-14.33512695 0.57587646 -15.09212891 0.46815918 -15.87207031 0.35717773 C-18 0 -18 0 -19.9921875 -0.53662109 C-22.23978555 -1.05533961 -24.24156868 -1.11323264 -26.546875 -1.09765625 C-27.39121094 -1.09443359 -28.23554688 -1.09121094 -29.10546875 -1.08789062 C-30.41451172 -1.07532227 -30.41451172 -1.07532227 -31.75 -1.0625 C-32.63816406 -1.05798828 -33.52632813 -1.05347656 -34.44140625 -1.04882812 C-36.62767329 -1.037074 -38.81380179 -1.02064249 -41 -1 C-41 -1.33 -41 -1.66 -41 -2 C-27.13503586 -4.56222884 -13.73605736 -2.1800394 0 0 Z " fill="#C39CF1" transform="translate(458,373)"/>
<path d="M0 0 C-2.75363344 2.75363344 -4.90788829 2.64730747 -8.74609375 3.21875 C-9.42527863 3.32165848 -10.1044635 3.42456696 -10.80422974 3.53059387 C-13.01411809 3.86249367 -15.2256141 4.18170764 -17.4375 4.5 C-18.9446175 4.72264722 -20.45169759 4.94554782 -21.95874023 5.16870117 C-32.61158386 6.72955659 -43.27272091 8.06293651 -54 9 C-53.67 8.34 -53.34 7.68 -53 7 C-50.18701172 6.34570312 -50.18701172 6.34570312 -46.4296875 5.78125 C-45.75640411 5.67784302 -45.08312073 5.57443604 -44.38943481 5.46789551 C-42.2191357 5.13684405 -40.04718256 4.81843262 -37.875 4.5 C-36.46472323 4.28594881 -35.05456526 4.07111331 -33.64453125 3.85546875 C-29.43267301 3.21576693 -25.21724529 2.60305994 -21 2 C-20.3042688 1.89977539 -19.6085376 1.79955078 -18.89172363 1.69628906 C-16.86861288 1.40688353 -14.84469955 1.12407455 -12.8203125 0.84375 C-11.65000488 0.68068359 -10.47969727 0.51761719 -9.27392578 0.34960938 C-6.15230643 0.01626419 -3.13632319 -0.0642616 0 0 Z " fill="#C29AF2" transform="translate(509,482)"/>
</svg>
