<svg width="512" height="512" viewBox="0 0 512 512" fill="none" xmlns="http://www.w3.org/2000/svg">
<path d="M340.283 232.249C340.283 235.073 338.485 236.871 335.661 236.871H246.562C243.737 236.871 241.94 235.073 241.94 232.249V221.978C241.94 219.153 243.737 217.356 246.562 217.356H335.661C338.485 217.356 340.283 219.153 340.283 221.978V232.249ZM379.825 261.007C379.825 263.832 378.028 265.629 375.204 265.629H265.306C262.481 265.629 260.684 263.832 260.684 261.007V250.736C260.684 247.912 262.481 246.114 265.306 246.114H374.177C377.001 246.114 378.798 247.912 378.798 250.736L379.825 261.007ZM409.868 291.049C409.868 293.874 408.07 295.671 405.246 295.671H286.104C283.28 295.671 281.482 293.874 281.482 291.049V280.778C281.482 277.954 283.28 276.156 286.104 276.156H405.246C408.07 276.156 409.868 277.954 409.868 280.778V291.049ZM409.868 320.834C409.868 323.659 408.07 325.456 405.246 325.456H286.104C283.28 325.456 281.482 323.659 281.482 320.834V310.564C281.482 307.739 283.28 305.942 286.104 305.942H405.246C408.07 305.942 409.868 307.739 409.868 310.564V320.834ZM379.825 349.593C379.825 352.417 378.028 354.215 375.204 354.215H265.306C262.481 354.215 260.684 352.417 260.684 349.593V339.322C260.684 336.498 262.481 334.7 265.306 334.7H374.177C377.001 334.7 378.798 336.498 378.798 339.322L379.825 349.593ZM340.283 379.378C340.283 382.203 338.485 384 335.661 384H246.562C243.737 384 241.94 382.203 241.94 379.378V369.107C241.94 366.283 243.737 364.485 246.562 364.485H335.661C338.485 364.485 340.283 366.283 340.283 369.107V379.378ZM171.585 142.893C171.585 145.717 173.382 147.515 176.207 147.515H265.306C268.13 147.515 269.928 145.717 269.928 142.893V132.622C269.928 129.797 268.13 128 265.306 128H176.207C173.382 128 171.585 129.797 171.585 132.622V142.893ZM132.042 172.678C132.042 175.503 133.84 177.3 136.664 177.3H245.535C248.359 177.3 250.156 175.503 250.156 172.678V162.407C250.156 159.583 248.359 157.785 245.535 157.785H136.664C133.84 157.785 132.042 159.583 132.042 162.407V172.678ZM102 202.463C102 205.288 103.797 207.085 106.622 207.085H225.763C228.588 207.085 230.385 205.288 230.385 202.463V192.193C230.385 189.368 228.588 187.571 225.763 187.571H106.622C103.797 187.571 102 189.368 102 192.193V202.463ZM102 232.249C102 235.073 103.797 236.871 106.622 236.871H225.763C228.588 236.871 230.385 235.073 230.385 232.249V221.978C230.385 219.153 228.588 217.356 225.763 217.356H106.622C103.797 217.356 102 219.153 102 221.978V232.249ZM132.042 261.007C132.042 263.832 133.84 265.629 136.664 265.629H245.535C248.359 265.629 250.156 263.832 250.156 261.007V250.736C250.156 247.912 248.359 246.114 245.535 246.114H136.664C133.84 246.114 132.042 247.912 132.042 250.736V261.007ZM171.585 291.049C171.585 293.874 173.382 295.671 176.207 295.671H265.306C268.13 295.671 269.928 293.874 269.928 291.049V280.778C269.928 277.954 268.13 276.156 265.306 276.156H176.207C173.382 276.156 171.585 277.954 171.585 280.778V291.049Z" fill="#F0553D"/>
</svg>
